<?xml version="1.0" encoding="utf-8"?>
<!-- Generator: Adobe Illustrator 21.1.0, SVG Export Plug-In . SVG Version: 6.00 Build 0)  -->
<svg version="1.1" id="_x32_" xmlns="http://www.w3.org/2000/svg" xmlns:xlink="http://www.w3.org/1999/xlink" x="0px" y="0px"
	 viewBox="0 0 512 512" style="enable-background:new 0 0 512 512;" xml:space="preserve">
<style type="text/css">
	.st0{opacity:0.4;}
	.st1{fill:#FF0000;}
</style>
<g class="st0">
	<path class="st1" d="M454.1,193.5c-3.6,3.2-7.4,6.3-11.4,9.1c-9.2,6.5-14.3,10.1-17.4,12.9c9.2,20.6,14.9,43.1,16,66.9h-66.4h-17.6
		h-92.4v-112h-17.7h-70.3c2.8-6.6,5.7-12.9,8.9-18.7c9.5-17.6,20.8-31.5,32.7-40.8c0.9-0.7,1.8-1.3,2.7-2c5.5-1,11.1-1.7,16.7-2.3
		c-0.3-3.7-0.6-7.5-0.6-11.3c0-8.3,0.8-16.5,2.3-24.4c-54.4,4-103.5,27.7-139.8,64c-39.9,39.9-64.7,95.3-64.7,156.2
		s24.8,116.3,64.7,156.2c39.9,40,95.3,64.7,156.2,64.7s116.3-24.8,156.2-64.7s64.7-95.3,64.7-156.2
		C476.9,256.1,468.7,222.9,454.1,193.5z M124.8,159.9c17.3-17.3,37.9-31.1,60.8-40.5c-10.9,14.1-20.2,31.4-27.8,50.9h-42.7
		C118.3,166.8,121.5,163.3,124.8,159.9z M101.7,188.1h50c-8.7,28.1-13.9,60.2-14.6,94.2H70.7C72.3,247.5,83.5,215.2,101.7,188.1z
		 M94.5,382.4c-13.9-24.5-22.4-52.5-23.8-82.5h66.4c0.7,29.4,4.6,57.3,11.3,82.5H94.5z M124.8,422.3c-6.9-6.9-13.2-14.3-18.9-22.2
		h47.8c4.7,14.1,10.2,27.2,16.5,38.9c4.7,8.7,9.9,16.6,15.4,23.8C162.7,453.4,142.1,439.6,124.8,422.3z M247.2,476.4
		c-8.8-0.4-17.5-1.5-26-3.1c-0.9-0.7-1.8-1.3-2.7-2c-18-13.9-34.2-38.4-45.7-69.7c-0.2-0.5-0.4-1.1-0.5-1.6h74.9L247.2,476.4
		L247.2,476.4z M247.2,382.4h-80.5c-7-24.8-11.3-52.7-12-82.5h92.4L247.2,382.4L247.2,382.4z M247.2,282.3h-92.5
		c0.8-34.5,6.5-66.7,15.6-94.2h76.9L247.2,282.3L247.2,282.3z M264.8,300h92.5c-0.7,29.7-5,57.7-12,82.5h-80.5V300L264.8,300z
		 M293.5,471.4c-0.9,0.7-1.8,1.3-2.7,2c-8.5,1.6-17.1,2.7-26,3.1v-76.3h74.9c-4,11-8.5,21.3-13.5,30.5
		C316.7,448.2,305.5,462.1,293.5,471.4z M387.2,422.3c-17.3,17.3-37.9,31.1-60.8,40.5c11.7-15.1,21.6-33.8,29.4-55
		c0.9-2.5,1.7-5.1,2.6-7.7h47.8C400.4,408,394.1,415.4,387.2,422.3z M417.5,382.4h-53.8c6.7-25.2,10.6-53.1,11.3-82.5h66.4
		C439.9,329.9,431.4,357.9,417.5,382.4z"/>
	<path class="st1" d="M313.8,173.7c22.5,15.9,27.4,19.7,35.3,34.8c6.3,11.9,16.4,32.9,16.4,32.9c0.5,1,1.4,1.6,2.5,1.6
		s2-0.6,2.5-1.6c0,0,10.1-20.9,16.4-32.9c7.9-15.1,12.9-18.9,35.3-34.8c24.6-17.5,41.1-45.9,41.1-78.4C463.4,42.7,420.7,0,368,0
		s-95.3,42.7-95.3,95.3C272.7,127.8,289.1,156.3,313.8,173.7z M368,55c22.3,0,40.3,18.1,40.3,40.3c0,22.3-18.1,40.3-40.3,40.3
		s-40.3-18.1-40.3-40.3S345.7,55,368,55z"/>
</g>
</svg>
